# xmcd
#
# Track frame offsets: 
#        150
#        17835
#        37833
#        56850
#        77255
#        94465
#        111850
#        133000
#        154305
#        176330
#        196304
#
# Disc length: 2945 seconds
#
# Revision: 2
# Processed by: cddbd v1.5.2PL0 Copyright (c) Steve Scherf et al.
# Submitted via: ExactAudioCopy v1.1
#
DISCID=8a0b7f0b
DTITLE=Ann Peebles - Full Time Love
DYEAR=1992
DGENRE=R&B
TTITLE0=Bouncin'  Jack
TTITLE1=St. Louis Woman (With A Memphis Melody)
TTITLE2=Read Me My Rights
TTITLE3=Full Time Lover
TTITLE4=Fear No Evil
TTITLE5=Nobody But You
TTITLE6=Ain't No Business Like Your Business
TTITLE7=I Miss You
TTITLE8=Just You Just Me
TTITLE9=He's My Superman
TTITLE10=I Can't Stand The Rain (1992)
EXTD=
EXTT0=
EXTT1=
EXTT2=
EXTT3=
EXTT4=
EXTT5=
EXTT6=
EXTT7=
EXTT8=
EXTT9=
EXTT10=
PLAYORDER=
